PathFileType	4	(X/Y/Z)	C:/Users/beibeiliu/ov580/test_trc\sequence.15_training_dense_right.trc
DataRate	CameraRate	NumFrames	NumMarkers	Units	OrigDataRate	OrigDataStartFrame	OrigNumFrames
120	120	8	19	mm	120	262	348
Frame#	Time	ThumbCMC			ThumbMCP			ThumbIP			ThumbTip			IndexMCP			IndexPIP			IndexTip			MiddleMCP			MiddlePIP			MiddleTip			RingMCP			RingPIP			RingTip			PinkyMCP			PinkyPIP			PinkyTip			BackHand1			BackHand2			BackHand3	
		X0	Y0	Z0	X1	Y1	Z1	X2	Y2	Z2	X3	Y3	Z3	X4	Y4	Z4	X5	Y5	Z5	X6	Y6	Z6	X7	Y7	Z7	X8	Y8	Z8	X9	Y9	Z9	X10	Y10	Z10	X11	Y11	Z11	X12	Y12	Z12	X13	Y13	Z13	X14	Y14	Z14	X15	Y15	Z15	X16	Y16	Z16	X17	Y17	Z17	X18	Y18	Z18	
261	2.175	134.984	19.3718	-32.0884	128.985	26.3109	-65.2893	132.017	37.4482	-87.7658	140.397	45.0459	-105.433	142.306	80.924	-60.7915	139.799	94.7813	-74.9602	144.092	110.769	-91.5823	158.358	72.7977	-78.4626	158.369	52.7645	-99.7954	151.134	27.5818	-78.0928	177.041	67.7006	-78.3253	172.589	51.11	-96.7716	161.845	27.4359	-79.1129	197.577	60.8607	-55.7256	207.031	76.4194	-65.9746	210.894	95.3349	-74.8708	180.532	50.1464	-28.3075	177.782	29.9802	-10.166	153.5	42.0172	-17.3307	
262	2.18333	133.634	20.3353	-33.9744	128.667	21.4252	-63.2263	127.677	33.1141	-85.9948	136.399	43.0767	-105.132	140.986	82.3598	-59.7921	143.699	94.7144	-73.5064	144.545	112.02	-86.6727	161.124	71.6364	-76.0553	157.196	51.8186	-98.762	153.522	28.36	-79.5982	176.818	67.374	-73.499	168.701	50.3591	-94.4493	164.512	26.3296	-78.7559	198.509	63.0308	-54.9267	204.451	77.0045	-62.9321	210.949	91.374	-69.5651	182.885	45.8757	-25.8985	181.348	29.72	-7.9513	154.54	43.5663	-16.313	
263	2.19167	134.353	19.2351	-35.3676	129.189	22.6814	-64.5562	130.65	36.1763	-87.6859	135.277	43.5865	-106.065	138.863	80.8424	-58.1899	137.55	95.5378	-72.3549	139.559	109.068	-83.4393	159.797	71.1286	-72.9442	156.79	55.5476	-97.6019	150.079	27.3979	-79.9199	175.281	68.6506	-73.166	172.315	51.2816	-95.0582	166.144	27.8544	-81.2102	198.269	61.966	-52.4373	203.953	77.6619	-62.4845	208.925	93.7376	-65.9065	179.167	46.3465	-25.0774	179.597	27.8891	-7.16169	152.893	37.4812	-16.0535	
264	2.2	132.083	12.5502	-33.7814	130.087	19.0071	-63.5394	129.889	33.9646	-88.1257	136.793	40.9145	-103.813	138.012	79.241	-59.0536	135.101	91.7983	-72.2596	139.345	107.684	-84.6687	158.204	70.5425	-74.3336	157.161	52.9764	-98.3245	152.931	25.181	-78.2343	176.86	67.8406	-71.5853	168.003	51.81	-93.7157	165.861	26.5883	-77.1584	194.666	63.2958	-51.7068	201.338	79.4306	-60.2255	206.825	98.1219	-67.1704	180.713	45.2305	-24.6444	177.344	28.4314	-9.49	151.687	36.3839	-16.1107	
265	2.20833	135.746	15.0794	-35.0308	129.281	19.7038	-65.6697	128.564	32.071	-88.8482	134.681	41.551	-108.103	137.491	76.1761	-57.7442	134.993	90.7292	-71.7442	134.941	108.681	-85.3634	155.498	70.3582	-76.883	155.586	52.4545	-97.4321	156.21	25.1166	-79.6173	172.779	67.1792	-73.1948	170.45	48.112	-94.5209	164.734	28.1533	-80.8112	197.587	65.7043	-50.8857	198.914	77.2995	-58.0153	208.168	95.7145	-65.6261	178.023	48.7963	-27.7519	177.514	25.8482	-6.11191	149.594	36.497	-15.6739	
266	2.21667	132.205	13.2208	-36.3055	130.8	17.2044	-64.5886	131.234	29.6472	-84.6824	134.163	39.8631	-108.451	136.387	72.4491	-55.5915	132.339	91.4405	-73.905	134.362	106.414	-85.4113	155.505	68.9539	-76.217	154.601	50.1875	-98.246	151.367	23.953	-81.5069	169.686	67.5893	-72.0848	172.606	51.4827	-92.6463	165.038	26.4958	-78.2972	191.416	63.0238	-49.492	201.766	78.1692	-57.358	202.705	98.3862	-61.9745	176.281	47.6982	-24.2505	177.022	28.7692	-9.766	151.311	34.1171	-16.3284	
267	2.225	137.123	10.8369	-33.1524	131.043	18.4517	-64.5219	131.096	29.2514	-85.6716	137.259	39.1325	-104.868	131.501	72.8044	-57.5459	136.27	88.5752	-72.5486	136.08	109.532	-87.7401	153.009	68.9591	-74.8949	157.036	50.7205	-97.0028	154.693	23.8551	-82.1346	172.295	68.3243	-71.9225	167.869	50.3858	-92.3143	163.133	25.842	-76.7214	192.585	64.2852	-49.4564	200.888	77.9816	-56.1956	205.635	98.7841	-61.8818	175.984	50.0924	-25.1067	176.858	29.9763	-6.72399	148.961	37.464	-17.3849	
268	2.23333	135.407	10.6831	-32.2746	130.127	18.755	-66.4501	133.486	28.391	-83.8494	138.791	42.2827	-106.43	140.208	77.4593	-58.4733	137.169	91.8152	-74.2587	138.988	107.882	-86.4804	159.323	69.8535	-73.7152	157.93	54.6408	-96.8921	159.609	23.9116	-79.4059	174.833	68.9176	-71.827	170.93	50.918	-91.9282	165.491	28.0916	-78.6267	198.534	63.703	-48.1191	205.049	81.1566	-56.7549	213.274	96.6268	-59.516	177.012	48.9598	-25.0557	181.058	26.3624	-6.62268	150.415	33.4649	-13.9276	
